<svg id="Capa_1" enable-background="new 0 0 512 512" height="512" viewBox="0 0 512 512" width="512" xmlns="http://www.w3.org/2000/svg"><g><path d="m82.065 125.732h17.153l18.426 24.733c2.151 2.887 5.584 4.61 9.184 4.61s7.033-1.723 9.184-4.61l18.425-24.733h17.153c4.556 0 9.071-1.145 13.059-3.31 8.706-4.648 14.418-14.193 14.325-24.074v-69.966c0-6.347-2.222-12.534-6.257-17.423-5.113-6.257-13.038-9.997-21.128-9.962h-89.524c-15.1 0-27.385 12.285-27.385 27.385v69.965c-.272 14.681 12.68 27.681 27.385 27.385zm-12.448-97.35c0-6.864 5.584-12.448 12.448-12.448h89.525c3.702-.024 7.269 1.683 9.608 4.534 1.858 2.25 2.84 4.987 2.84 7.914v69.965c.14 6.68-5.76 12.591-12.448 12.448h-20.903c-2.359 0-4.58 1.114-5.989 3.007l-17.871 23.988-17.871-23.988c-1.409-1.892-3.63-3.007-5.989-3.007h-20.902c-6.676.153-12.567-5.802-12.448-12.448z"/><path d="m395.113 238.777c.803-3.559-.463-7.188-3.305-9.47-2.838-2.279-6.648-2.73-9.944-1.181-9.943 4.678-33.468 18.62-37.169 47.012-1.697 13.022 1.511 23.495 4.089 31.91 3.653 11.923 4.475 15.978-2.508 21.886-4.402 3.727-9.845 4.769-16.174 3.099-11.711-3.089-23.372-14.705-28.359-28.248-8.205-22.288-6.238-52.683 16.654-70.344 32.326-24.941 25.445-46.111 17.478-70.623-1.788-5.501-3.637-11.189-5.214-17.362-4.35-17.023-2.222-26.858.031-37.27 2.396-11.072 5.111-23.62-.293-43.834-12.568-47.009-78.641-62.521-86.132-64.134-3.857-.833-7.747.762-9.908 4.063-2.159 3.299-2.065 7.499.24 10.7 18.686 25.951 22.922 70.902-6.035 103.09-10.078 11.202-21.447 18.694-32.232 25.121-3.543 2.111-4.704 6.695-2.593 10.239 2.111 3.543 6.695 4.706 10.239 2.592 11.795-7.028 24.282-15.28 35.69-27.962 30.023-33.372 29.793-78.407 14.324-109.667 19.35 6.249 54.343 21.272 61.975 49.819 4.471 16.725 2.457 26.036.124 36.817-2.403 11.105-5.126 23.69.096 44.128 1.696 6.636 3.707 12.822 5.481 18.28 7.719 23.749 11.593 35.669-12.397 54.178-28.888 22.288-31.637 59.922-21.546 87.331 6.673 18.125 22.171 33.207 38.566 37.531 11 2.904 21.524.722 29.632-6.139 14.835-12.553 10.747-25.894 7.141-37.665-2.378-7.764-4.838-15.792-3.559-25.603 1.933-14.831 11.542-24.533 19.757-30.246.101 10.924 4.291 19.462 8.963 28.984 7.673 15.637 17.219 35.092 17.265 78.161-1.756 20.468-7.418 40.075-16.833 58.282-1.894 3.663-.46 8.17 3.204 10.064 3.588 1.878 8.162.496 10.065-3.204 10.369-20.054 16.585-41.655 18.475-64.203.017-.208.026-.416.026-.624 0-46.758-10.862-68.894-18.792-85.056-5.719-11.66-9.173-18.698-6.522-30.452z"/><path d="m381.946 437.518c-3.211-2.589-7.913-2.083-10.502 1.127-29.925 37.126-74.405 58.418-122.033 58.418-76.481 0-141.406-54.616-154.375-129.864-.7-4.065-4.558-6.79-8.629-6.092-4.065.7-6.792 4.564-6.092 8.628 6.787 39.379 27.378 75.401 57.979 101.432 30.957 26.332 70.419 40.833 111.117 40.833 52.169 0 100.887-23.32 133.663-63.981 2.588-3.212 2.083-7.913-1.128-10.501z"/><path d="m225.643 239.28c-9.248 5.804-21.914 13.753-27.974 30.923-1.545 4.377-1.691 8.475-1.832 12.438-.248 6.981-.482 13.576-8.845 23.461-19.464 23.008-35.359 45.424-32.704 86.87 2.808 43.827 43.523 82.273 87.13 82.273 42.985 0 79.932-34.264 82.362-76.38.986-17.09-10.397-22.779-17.929-26.544-1.541-.77-2.997-1.499-4.261-2.255-3.718-2.227-6.808-8.659-8.478-17.644-.788-4.242-4.208-7.331-8.511-7.689-4.311-.352-8.191 2.129-9.668 6.183-3.743 10.27-8.145 18.612-12.397 23.489-3.508 4.024-5.946 4.54-7.677 4.54-1.331 0-2.59-.819-3.206-2.086-.684-1.405-1.33-2.734 4.451-8.515 7.402-7.401 13.497-14.853 13.11-31.132-.316-13.248-6.532-23.145-12.016-31.876-5.303-8.443-8.484-13.906-7.13-19.596 1.251-5.252 4.428-8.897 8.107-13.119 6.363-7.3 14.282-16.387 11.452-34.584-2.955-18.998-14.212-28.265-20.659-32.097-3.624-2.156-8.142-1.689-11.238 1.163-3.105 2.858-3.945 7.332-2.091 11.133 2.153 4.414 2.435 8.489.838 12.112-1.298 2.947-5.717 5.72-10.834 8.932zm24.503-2.908c.829-1.881 1.433-3.809 1.814-5.773 1.289 2.722 2.317 5.938 2.908 9.734 1.762 11.327-2.313 16.003-7.953 22.474-4.347 4.988-9.274 10.641-11.377 19.473-2.875 12.076 3.168 21.697 9.012 31 4.893 7.79 9.515 15.148 9.732 24.287.255 10.709-2.821 14.295-8.74 20.214-3.982 3.982-13.308 13.309-7.319 25.614 3.1 6.37 9.631 10.486 16.637 10.486 6.976 0 13.348-3.251 18.936-9.661 3.558-4.082 6.64-9.152 9.214-14.262 2.464 5.206 5.955 9.956 10.904 12.92 1.752 1.05 3.535 1.941 5.259 2.803 7.194 3.596 10.098 5.334 9.695 12.323-1.982 34.353-32.24 62.302-67.45 62.302-36.143 0-69.892-31.912-72.223-68.291-2.303-35.953 11.248-55.045 29.201-76.268 11.702-13.833 12.087-24.667 12.369-32.577.115-3.228.205-5.776.989-7.998 4.327-12.258 13.224-17.842 21.829-23.242 6.9-4.329 13.417-8.419 16.563-15.558z"/><path d="m484.286 85.829h-89.525c-15.1 0-27.385 12.285-27.385 27.385v69.965c0 15.1 12.285 27.385 27.385 27.385h17.153l18.425 24.733c2.151 2.887 5.584 4.61 9.184 4.61s7.033-1.723 9.184-4.61l18.426-24.733h17.153c15.1 0 27.385-12.285 27.385-27.385v-69.965c0-15.1-12.285-27.385-27.385-27.385zm12.447 97.35c0 6.864-5.584 12.448-12.448 12.448h-20.902c-2.359 0-4.58 1.114-5.989 3.007l-17.871 23.988-17.871-23.988c-1.41-1.892-3.63-3.007-5.989-3.007h-20.903c-6.864 0-12.448-5.584-12.448-12.448v-69.965c0-6.864 5.584-12.448 12.448-12.448h89.525c6.864 0 12.448 5.584 12.448 12.448z"/><path d="m459.828 115.496c-7.442-.911-14.743 1.311-20.305 5.88-5.563-4.569-12.861-6.792-20.305-5.88-12.175 1.493-21.937 11.439-23.213 23.651-1.145 10.955 4.39 21.346 14.1 26.472 5.647 2.962 9.294 5.675 13.242 9.32 3.213 2.848 6.136 6.046 8.688 9.504 1.747 2.366 4.546 3.779 7.488 3.779s5.741-1.413 7.489-3.781c2.551-3.456 5.473-6.654 8.685-9.501 3.948-3.645 7.599-6.361 13.244-9.321 9.711-5.127 15.245-15.518 14.1-26.473-1.276-12.211-11.039-22.157-23.213-23.65zm2.139 36.914c-6.678 3.51-11.394 6.944-16.178 11.352-2.205 1.955-4.299 4.042-6.267 6.241-1.967-2.201-4.062-4.287-6.268-6.242-4.782-4.407-9.497-7.842-16.177-11.352-4.284-2.261-6.724-6.858-6.217-11.71.56-5.359 4.839-9.723 10.174-10.377.492-.06.982-.09 1.468-.09 4.192 0 8.101 2.197 10.229 5.85 1.402 2.41 4.002 3.907 6.784 3.909h.005c2.781 0 5.381-1.495 6.788-3.905 2.378-4.081 6.966-6.347 11.698-5.764 5.335.654 9.614 5.018 10.174 10.376.512 4.853-1.928 9.45-6.213 11.712z"/><path d="m81.66 341.147 18.425-24.734h17.153c15.1 0 27.385-12.285 27.385-27.385v-69.964c0-6.297-2.142-12.101-5.729-16.732 4.657-4.81 9.708-9.504 15.081-14.003 6.13-5.136 12.805-9.988 20.403-14.835 3.478-2.218 4.499-6.835 2.28-10.313-2.218-3.478-6.835-4.499-10.313-2.28-8.149 5.198-15.333 10.424-21.963 15.978-6.306 5.282-12.206 10.825-17.606 16.518-2.972-1.108-6.185-1.717-9.539-1.717h-89.523c-15.1 0-27.385 12.285-27.385 27.385v69.964c0 15.1 12.285 27.385 27.385 27.385h17.153l18.427 24.735c2.151 2.886 5.583 4.609 9.183 4.609 3.599-.001 7.032-1.724 9.183-4.611zm-9.184-12.675-17.871-23.989c-1.41-1.892-3.63-3.007-5.989-3.007h-20.902c-6.864 0-12.448-5.584-12.448-12.448v-69.964c0-6.864 5.584-12.448 12.448-12.448h89.525c6.864 0 12.448 5.584 12.448 12.448v69.964c0 6.864-5.584 12.448-12.448 12.448h-20.903c-2.359 0-4.58 1.114-5.989 3.007z"/><path d="m101.895 271.468c9.71-5.127 15.244-15.519 14.099-26.473-1.276-12.21-11.039-22.157-23.212-23.65h-.001c-7.444-.911-14.74 1.311-20.303 5.882-5.563-4.572-12.868-6.794-20.306-5.881-12.175 1.493-21.937 11.439-23.213 23.65-1.145 10.955 4.39 21.346 14.101 26.473 4.536 2.394 8.172 4.826 11.115 7.435l2.127 1.887c3.213 2.846 6.135 6.043 8.685 9.499 1.747 2.368 4.547 3.783 7.49 3.783s5.743-1.415 7.49-3.782c2.548-3.454 5.471-6.651 8.687-9.502l2.124-1.884c2.944-2.609 6.58-5.041 11.117-7.437zm-21.027-3.74-2.124 1.884c-2.206 1.955-4.3 4.041-6.267 6.24-1.967-2.2-4.062-4.286-6.266-6.239-4.782-4.41-9.503-7.846-16.178-11.354-4.284-2.261-6.725-6.858-6.217-11.71.582-5.867 5.757-10.527 11.644-10.467 4.191 0 8.099 2.198 10.232 5.859 1.404 2.406 4.004 3.901 6.785 3.901h.005c2.783-.002 5.383-1.5 6.782-3.905 2.377-4.08 6.976-6.34 11.698-5.765 5.336.654 9.616 5.019 10.175 10.376.507 4.853-1.933 9.449-6.216 11.711-5.605 2.958-10.202 6.056-14.053 9.469z"/><path d="m133.964 41.941h14.236v32.656c-2.927-2.226-7.119-2.011-9.792.663-2.917 2.916-2.917 7.646 0 10.562l11.979 11.979c1.458 1.458 3.37 2.187 5.281 2.187s3.823-.729 5.281-2.187l11.979-11.979c2.917-2.916 2.917-7.646 0-10.562-2.673-2.673-6.864-2.889-9.792-.663v-40.124c0-4.125-3.344-7.469-7.469-7.469h-21.704c-4.125 0-7.469 3.343-7.469 7.469s3.345 7.468 7.47 7.468z"/><path d="m90.341 52.262v40.07c0 4.125 3.344 7.469 7.469 7.469h21.704c4.125 0 7.469-3.343 7.469-7.469 0-4.125-3.344-7.469-7.469-7.469h-14.235v-32.861c1.364 1.102 3.025 1.655 4.687 1.655 1.911 0 3.823-.729 5.281-2.188 2.917-2.916 2.917-7.646 0-10.562l-11.979-11.979c-2.916-2.915-7.646-2.915-10.562 0l-11.981 11.979c-2.917 2.916-2.917 7.646 0 10.562 2.62 2.62 6.698 2.879 9.616.793z"/></g></svg>